<?xml version="1.0" encoding="utf-8"?>
<!-- Generator: Adobe Illustrator 22.0.0, SVG Export Plug-In . SVG Version: 6.00 Build 0)  -->
<svg version="1.1" id="Capa_1" xmlns="http://www.w3.org/2000/svg" xmlns:xlink="http://www.w3.org/1999/xlink" x="0px" y="0px"
	 viewBox="0 0 477.2 477.2" style="enable-background:new 0 0 477.2 477.2;" xml:space="preserve">
<g>
	<path d="M331.7,229.1L106.6,4c-5.3-5.3-13.8-5.3-19.1,0s-5.3,13.8,0,19.1L303,238.6L87.5,454.1c-5.3,5.3-5.3,13.8,0,19.1
		c2.6,2.6,6.1,4,9.5,4c3.4,0,6.9-1.3,9.5-4l225.1-225.1C336.9,242.9,336.9,234.3,331.7,229.1z"/>
	<g>
		<path d="M396.4,458.2c9.4,0,12.2-7.7,12.2-17.1l0-405c0-9.5-3.6-17.1-13.2-17.1c-9.5,0.1-14.2,7.7-14.2,17.3l0,387.8l0.3,17.7
			C381.5,441.7,381,458.3,396.4,458.2z"/>
	</g>
</g>
</svg>
