<?xml version="1.0" encoding="utf-8"?>
<!-- Generator: Adobe Illustrator 22.0.0, SVG Export Plug-In . SVG Version: 6.00 Build 0)  -->
<svg version="1.1" id="Capa_1" xmlns="http://www.w3.org/2000/svg" xmlns:xlink="http://www.w3.org/1999/xlink" x="0px" y="0px"
	 viewBox="0 0 477.2 477.2" style="enable-background:new 0 0 477.2 477.2;" xml:space="preserve">
<g>
	<path d="M160.5,248.1l225.1,225.1c2.6,2.7,6.1,4,9.5,4s6.9-1.4,9.5-4c5.3-5.3,5.3-13.8,0-19.1L189.1,238.6L404.6,23.1
		c5.3-5.3,5.3-13.8,0-19.1c-5.3-5.3-13.8-5.3-19.1,0L160.4,229.1C155.2,234.3,155.2,242.9,160.5,248.1z"/>
	<g>
		<path d="M110.7,441.7l0.3-17.7l0-387.8c0-9.5-4.6-17.2-14.2-17.3s-13.2,7.6-13.2,17.1l0,405c0,9.4,2.7,17.1,12.2,17.1
			C111.1,458.3,110.7,441.7,110.7,441.7z"/>
	</g>
</g>
</svg>
